# Created by Kenney (www.kenney.nl)

mtllib wheelRacing.mtl

g wheelRacing

v -0.15 0.1125 -0.1948557
v -1.840874E-14 0.1125 -0.1948557
v -0.15 0.159099 -0.159099
v 1.191154E-14 0.159099 -0.159099
v -0.15 -0.159099 -0.159099
v -0.15 -0.1125 -0.1948557
v -0.225 -0.1352342 -0.1352342
v -0.225 -0.095625 -0.1656274
v -0.15 -0.05823428 0.2173333
v -0.225 -0.04949914 0.1847333
v -0.15 3.38396E-17 0.225
v -0.225 3.38396E-17 0.19125
v -0.15 0.1948557 0.1125
v -0.225 0.1656274 0.095625
v -0.15 0.2173333 0.05823428
v -0.225 0.1847333 0.04949914
v 5.522622E-14 -0.1948557 -0.1125
v 1.191154E-14 -0.159099 -0.159099
v -0.15 -0.1948557 -0.1125
v -0.15 0.159099 0.159099
v -0.225 0.1352342 0.1352342
v 2.60971E-13 -0.1948557 0.1125
v 2.100762E-13 -0.2173333 0.05823428
v -0.15 -0.1948557 0.1125
v -0.15 -0.2173333 0.05823428
v 3.021199E-13 -0.159099 0.159099
v -0.15 -0.159099 0.159099
v 3.346059E-13 -0.1125 0.1948557
v -0.15 -0.1125 0.1948557
v -0.15 0.1948557 -0.1125
v -0.225 0.1656274 -0.095625
v -0.225 0.1352342 -0.1352342
v -0.225 0.04949914 -0.1847333
v -0.15 0.05823428 -0.2173333
v -0.225 0.095625 -0.1656274
v -0.15 0.05823428 0.2173333
v -0.225 0.04949914 0.1847333
v -0.15 0 -0.225
v -4.656329E-14 0 -0.225
v -4.114895E-14 0.05823428 -0.2173333
v 1.559329E-13 0.225 -7.363497E-14
v -0.15 0.225 6.253558E-14
v 1.039552E-13 0.2173333 -0.05823428
v -0.15 0.2173333 -0.05823428
v -0.225 -0.095625 0.1656274
v 3.346059E-13 0.1125 0.1948557
v -0.15 0.1125 0.1948557
v 3.021199E-13 0.159099 0.159099
v -0.15 -0.225 6.253558E-14
v -0.15 -0.2173333 -0.05823428
v -0.225 -0.19125 1.307562E-13
v -0.225 -0.1847333 -0.04949914
v 3.551804E-13 -0.05823428 0.2173333
v -0.225 0.095625 0.1656274
v 5.522622E-14 0.1948557 -0.1125
v -0.225 0.19125 1.307562E-13
v 3.551804E-13 0.05823428 0.2173333
v -0.15 -0.05823428 -0.2173333
v -0.225 -0.04949914 -0.1847333
v -0.225 0 -0.19125
v -4.114895E-14 -0.05823428 -0.2173333
v 2.60971E-13 0.1948557 0.1125
v 2.100762E-13 0.2173333 0.05823428
v 3.605947E-13 3.38396E-17 0.225
v -0.225 -0.1656274 -0.095625
v -0.225 -0.1352342 0.1352342
v -0.225 -0.1656274 0.095625
v 1.039552E-13 -0.2173333 -0.05823428
v -0.225 -0.1847333 0.04949914
v 1.559329E-13 -0.225 -7.363497E-14
v -1.840874E-14 -0.1125 -0.1948557
v -0.225 0.1847333 -0.04949914
v -0.225 -0.05808463 0.05808463
v -0.15 -0.04356347 0.04356347
v -0.225 -0.04107204 0.07113886
v -0.15 -0.03080403 0.05335414
v -0.15 5.752732E-16 0.06160805
v -0.15 0.01594534 0.05950882
v -0.225 6.76792E-16 0.08214407
v -0.225 0.02126045 0.07934508
v -0.15 7.783107E-16 -0.06160805
v -0.15 0.01594534 -0.05950882
v -0.15 -0.01594534 -0.05950882
v -0.15 -0.03080403 -0.05335414
v -0.15 0.03080403 -0.05335414
v -0.15 -0.04356347 -0.04356347
v -0.15 0.04356347 -0.04356347
v -0.15 -0.05335414 -0.03080403
v -0.15 0.05335414 -0.03080403
v -0.15 -0.05950882 -0.01594534
v -0.15 0.05950882 -0.01594534
v -0.15 -0.06160805 6.253558E-14
v -0.15 0.06160805 6.253558E-14
v -0.15 -0.05950882 0.01594534
v -0.15 0.05950882 0.01594534
v -0.15 -0.05335414 0.03080403
v -0.15 0.05335414 0.03080403
v -0.15 0.04356347 0.04356347
v -0.15 0.03080403 0.05335414
v -0.15 -0.01594534 0.05950882
v -0.225 -0.04107204 -0.07113886
v -0.225 -0.02126045 -0.07934508
v -0.225 1.184386E-15 -0.1236601
v -0.225 0.0320056 -0.1194465
v -0.225 -0.0320056 -0.1194465
v -0.225 0.06183007 -0.1070928
v -0.225 -0.06183007 -0.1070928
v -0.225 -0.08744092 -0.08744092
v -0.225 0.08744092 -0.08744092
v -0.225 9.475087E-16 -0.08214407
v -0.225 -0.1070928 -0.06183007
v -0.225 -0.05808463 -0.05808463
v -0.225 -0.1194465 -0.0320056
v -0.225 -0.07113886 -0.04107204
v -0.225 -0.07934508 -0.02126045
v -0.225 -0.1236601 1.307562E-13
v -0.225 -0.08214407 1.307562E-13
v -0.225 -0.1194465 0.0320056
v -0.225 -0.07934508 0.02126045
v -0.225 -0.07113886 0.04107204
v -0.225 -0.1070928 0.06183007
v -0.225 -0.08744092 0.08744092
v -0.225 -0.02126045 0.07934508
v -0.225 0.08744092 0.08744092
v -0.225 0.06183007 0.1070928
v -0.225 -0.06183007 0.1070928
v -0.225 0.0320056 0.1194465
v -0.225 -0.0320056 0.1194465
v -0.225 1.285905E-15 0.1236601
v -0.225 0.04107204 0.07113886
v -0.225 0.1070928 0.06183007
v -0.225 0.05808463 0.05808463
v -0.225 0.07113886 0.04107204
v -0.225 0.1194465 0.0320056
v -0.225 0.07934508 0.02126045
v -0.225 0.1236601 1.307562E-13
v -0.225 0.08214407 1.307562E-13
v -0.225 0.07934508 -0.02126045
v -0.225 0.1194465 -0.0320056
v -0.225 0.07113886 -0.04107204
v -0.225 0.05808463 -0.05808463
v -0.225 0.1070928 -0.06183007
v -0.225 0.04107204 -0.07113886
v -0.225 0.02126045 -0.07934508

vn 0 0.5 -0.8660254
vn 0 0.7071068 -0.7071068
vn -0.4103647 -0.6448259 -0.6448259
vn -0.4103647 -0.4559608 -0.7897472
vn -0.4103647 -0.2360227 0.8808486
vn -0.4103647 0 0.9119215
vn -0.4103647 0.7897472 0.4559608
vn -0.4103647 0.8808486 0.2360227
vn 0 -0.8660254 -0.5
vn 0 -0.7071068 -0.7071068
vn -0.4103647 0.6448259 0.6448259
vn 0 -0.8660254 0.5
vn 0 -0.9659258 0.258819
vn 0 -0.7071068 0.7071068
vn 0 -0.5 0.8660254
vn -0.4103647 0.7897472 -0.4559608
vn -0.4103647 0.6448259 -0.6448259
vn -0.4103647 0.2360227 -0.8808486
vn -0.4103647 0.4559608 -0.7897472
vn -0.4103647 0.2360227 0.8808486
vn 0 0 -1
vn 0 0.258819 -0.9659258
vn 0 1 0
vn 0 0.9659258 -0.258819
vn -0.4103647 -0.4559608 0.7897472
vn 0 0.5 0.8660254
vn 0 0.7071068 0.7071068
vn -0.4103647 -0.9119215 0
vn -0.4103647 -0.8808486 -0.2360227
vn 0 -0.258819 0.9659258
vn -0.4103647 0.4559608 0.7897472
vn 0 0.8660254 -0.5
vn -0.4103647 0.9119215 0
vn 0 0.258819 0.9659258
vn -0.4103647 -0.2360227 -0.8808486
vn -0.4103647 0 -0.9119215
vn 0 -0.258819 -0.9659258
vn 0 0.8660254 0.5
vn 0 0.9659258 0.258819
vn 0 0 1
vn -0.4103647 -0.7897472 -0.4559608
vn -0.4103647 -0.6448259 0.6448259
vn -0.4103647 -0.7897472 0.4559608
vn 0 -0.9659258 -0.258819
vn -0.4103647 -0.8808486 0.2360227
vn 0 -1 0
vn 1 0 0
vn 0 -0.5 -0.8660254
vn -0.4103647 0.8808486 -0.2360227
vn -0.2640925 0.6820027 -0.6820027
vn -0.2640925 0.4822487 -0.8352792
vn -0.2640925 0 -0.9644974
vn -0.2640924 -0.2496303 -0.9316329
vn -1 0 0
vn -0.2640925 0.4822487 0.8352792
vn -0.2640924 0.2496303 0.9316329
vn -0.2640925 -0.8352792 0.4822487
vn -0.2640925 -0.6820027 0.6820027
vn -0.2640925 0 0.9644974
vn -0.2640924 -0.2496303 0.9316329
vn -0.2640925 0.8352792 -0.4822487
vn -0.2640924 0.9316329 -0.2496303
vn -0.2640924 0.2496303 -0.9316329
vn -0.2640925 -0.4822487 -0.8352792
vn -0.2640925 -0.9644974 0
vn -0.2640924 -0.9316329 0.2496303
vn -0.2640925 -0.6820027 -0.6820027
vn -0.2640925 0.6820027 0.6820027
vn -0.2640925 0.8352792 0.4822487
vn -0.2640925 0.9644974 0
vn -0.2640924 0.9316329 0.2496303
vn -0.2640925 -0.4822487 0.8352792
vn -0.2640924 -0.9316329 -0.2496303
vn -0.2640925 -0.8352792 -0.4822487

vt 7.874016 -1.541648
vt -8.323694E-12 -1.541648
vt 7.874016 1.541648
vt -8.210557E-12 1.541648
vt 2.769491 -0.7493838
vt 1.849449 2.193444
vt 6.815154 0.7577326
vt 6.033118 3.259136
vt -2.498809 -1.409827
vt -6.791303 -0.9479968
vt -2.333658 1.669042
vt -6.650924 1.669042
vt -0.6439552 -2.795887
vt -3.879534 -5.654176
vt -2.806125 -0.5977653
vt -5.717378 -3.785773
vt -8.262617E-12 -1.541648
vt -1.414126 -2.496379
vt -5.330165 -4.313911
vt -2.860106 0.2268274
vt -6.559249 -1.999185
vt 8.335661E-12 1.541648
vt 8.251218E-12 -1.541648
vt -7.874016 1.541648
vt -7.874016 -1.541648
vt 8.274034E-12 -1.541648
vt 8.274584E-12 1.541648
vt 2.860106 0.2268274
vt 6.559249 -1.999185
vt 1.414126 -2.496379
vt 5.330165 -4.313911
vt 6.418854 -2.41222
vt 2.129416 -1.922823
vt 6.85499 0.1720372
vt 2.642518 1.11748
vt -2.333658 -1.669042
vt -6.650924 -1.669042
vt -2.498809 1.409827
vt -6.791303 0.9479968
vt -8.282938E-12 -1.541648
vt -8.201635E-12 1.541648
vt -8.185452E-12 1.541648
vt -8.233373E-12 -1.541648
vt -2.642518 -1.11748
vt -6.85499 -0.1720372
vt -2.129416 1.922823
vt -6.418854 2.41222
vt 8.274584E-12 -1.541648
vt 8.274034E-12 1.541648
vt 2.210953 1.828482
vt -0.7229816 2.776501
vt 3.31643 6.001815
vt 0.8225853 6.807631
vt 8.282957E-12 1.541648
vt -6.418854 -2.41222
vt -6.85499 0.1720372
vt -2.129416 -1.922823
vt -2.642518 1.11748
vt -8.233373E-12 1.541648
vt 0.7229816 -2.776501
vt -0.8225853 -6.807631
vt -2.210953 -1.828482
vt -3.31643 -6.001815
vt 8.282957E-12 -1.541648
vt 2.498809 -1.409827
vt 2.333658 1.669042
vt 6.791303 -0.9479968
vt 6.650924 1.669042
vt -8.201635E-12 -1.541648
vt -8.282938E-12 1.541648
vt 8.335661E-12 -1.541648
vt 8.251218E-12 1.541648
vt 8.201654E-12 -1.541648
vt 2.806125 0.5977653
vt 0.6439552 2.795887
vt 5.717378 3.785773
vt 3.879534 5.654176
vt -1.414126 2.496379
vt -2.860106 -0.2268274
vt -5.330165 4.313911
vt -6.559249 1.999185
vt -8.262617E-12 1.541648
vt 0.7229816 2.776501
vt -2.210953 1.828482
vt -0.8225853 6.807631
vt -3.31643 6.001815
vt 6.033118 -3.259136
vt 1.849449 -2.193444
vt 6.815154 -0.7577326
vt 2.769491 0.7493838
vt -6.033118 -3.259136
vt -6.815154 -0.7577326
vt -1.849449 -2.193444
vt -2.769491 0.7493838
vt 2.642518 -1.11748
vt 2.129416 1.922823
vt 6.85499 -0.1720372
vt 6.418854 2.41222
vt -8.185452E-12 -1.541648
vt 8.201654E-12 1.541648
vt 11.81102 0
vt 11.40857 -3.056918
vt 11.40857 3.056918
vt 10.22865 5.905512
vt 10.22865 -5.905512
vt 8.351655 8.351655
vt 8.351655 -8.351655
vt 5.905512 10.22865
vt 5.905512 -10.22865
vt 3.056918 11.40857
vt 3.056918 -11.40857
vt 3.865352E-12 11.81102
vt 3.865352E-12 -11.81102
vt -3.056918 11.40857
vt -3.056918 -11.40857
vt -5.905512 10.22865
vt -5.905512 -10.22865
vt -8.351655 8.351655
vt -8.351655 -8.351655
vt -10.22865 5.905512
vt -10.22865 -5.905512
vt -11.40857 3.056918
vt -11.40857 -3.056918
vt -11.81102 1.776357E-15
vt -8.210557E-12 -1.541648
vt 2.210953 -1.828482
vt 3.31643 -6.001815
vt -0.7229816 -2.776501
vt 0.8225853 -6.807631
vt 8.185452E-12 1.541648
vt -8.323694E-12 1.541648
vt 2.806125 -0.5977653
vt 5.717378 -3.785773
vt 0.6439552 -2.795887
vt 3.879534 -5.654176
vt -0.6439552 2.795887
vt -2.806125 0.5977653
vt -3.879534 5.654176
vt -5.717378 3.785773
vt 8.185452E-12 -1.541648
vt -2.769491 -0.7493838
vt -6.815154 0.7577326
vt -1.849449 2.193444
vt -6.033118 3.259136
vt 2.860106 -0.2268274
vt 1.414126 2.496379
vt 6.559249 1.999185
vt 5.330165 4.313911
vt 6.650924 -1.669042
vt 2.333658 -1.669042
vt 6.791303 0.9479968
vt 2.498809 1.409827
vt 12.16204 -3.019042
vt 8.190291 -2.077073
vt 12.3839 -1.915456
vt 8.356683 -1.249384
vt 8.448547 -0.1309722
vt 8.419445 0.7127743
vt 12.53047 -0.1309722
vt 12.49167 0.9940231
vt -3.234019 3.894711E-14
vt -3.123822 0.8370256
vt -3.123822 -0.8370256
vt -2.800742 -1.617009
vt -2.800742 1.617009
vt -2.286797 -2.286797
vt -2.286797 2.286797
vt -1.617009 -2.800742
vt -1.617009 2.800742
vt -0.8370256 -3.123822
vt -0.8370256 3.123822
vt -3.868763E-12 -3.234019
vt -3.868763E-12 3.234019
vt 0.8370256 -3.123822
vt 0.8370256 3.123822
vt 1.617009 -2.800742
vt 1.617009 2.800742
vt 2.286797 -2.286797
vt 2.286797 2.286797
vt 2.800742 -1.617009
vt 2.800742 1.617009
vt 3.123822 -0.8370256
vt 3.123822 0.8370256
vt 3.234019 2.828897E-14
vt -12.38472 -1.910118
vt -12.50617 -0.7910243
vt -8.344214 -1.330111
vt -8.435297 -0.4907903
vt -6.491346 6.217249E-14
vt -6.270159 1.680084
vt -6.270159 -1.680084
vt -5.62167 3.245673
vt -5.62167 -3.245673
vt -4.590075 -4.590075
vt -4.590075 4.590075
vt -4.312025 4.973799E-14
vt -4.165096 -1.116034
vt -3.245673 -5.62167
vt -3.734323 -2.156013
vt -3.049062 -3.049062
vt -1.680084 -6.270159
vt -2.156013 -3.734323
vt -1.116034 -4.165096
vt -3.836149E-12 -6.491346
vt -3.863362E-12 -4.312025
vt 1.680084 -6.270159
vt 1.116034 -4.165096
vt 2.156013 -3.734323
vt 3.245673 -5.62167
vt 3.049062 -3.049062
vt 3.734323 -2.156013
vt 4.590075 -4.590075
vt 4.165096 -1.116034
vt 4.312025 3.552714E-14
vt 4.590075 4.590075
vt 5.62167 3.245673
vt 5.62167 -3.245673
vt 6.270159 1.680084
vt 6.270159 -1.680084
vt 6.491346 6.750156E-14
vt 4.165096 1.116034
vt 3.734323 2.156013
vt 3.245673 5.62167
vt 3.049062 3.049062
vt 2.156013 3.734323
vt 1.680084 6.270159
vt 1.116034 4.165096
vt -3.836149E-12 6.491346
vt -3.863362E-12 4.312025
vt -1.116034 4.165096
vt -1.680084 6.270159
vt -2.156013 3.734323
vt -3.049062 3.049062
vt -3.245673 5.62167
vt -3.734323 2.156013
vt -4.165096 1.116034
vt -7.849943 3.12626
vt -8.122733 2.327298
vt -11.66515 4.577573
vt -12.02887 3.51229
vt -8.448547 -0.1309722
vt -12.53047 -0.1309722
vt -8.419445 0.7127743
vt -12.49167 0.9940231
vt 7.357779 -4.154299
vt 10.88074 -6.216069
vt 6.906487 -4.867806
vt 10.27902 -7.167411
vt 12.38472 -1.910118
vt 8.344214 -1.330111
vt 12.50617 -0.7910243
vt 8.435297 -0.4907903
vt 12.49167 -0.9940231
vt 8.419445 -0.7127743
vt 12.53047 0.1309722
vt 8.448547 0.1309722
vt 8.435297 0.4907903
vt 8.344214 1.330111
vt 12.50617 0.7910243
vt 12.38472 1.910118
vt -3.412006 7.730027
vt -4.166365 7.350953
vt -5.11801 11.43835
vt -6.123822 10.93292
vt 8.356683 1.249384
vt 8.190291 2.077073
vt 12.3839 1.915456
vt 12.16204 3.019042
vt 8.122733 -2.327298
vt 12.02887 -3.51229
vt 7.849943 -3.12626
vt 11.66515 -4.577573
vt -12.16204 -3.019042
vt -12.3839 -1.915456
vt -8.190291 -2.077073
vt -8.356683 -1.249384
vt -7.849943 -3.12626
vt -11.66515 -4.577573
vt -8.122733 -2.327298
vt -12.02887 -3.51229
vt -6.906487 4.867806
vt -7.357779 4.154299
vt -10.27902 7.167411
vt -10.88074 6.216069
vt 4.166365 -7.350953
vt 6.123822 -10.93292
vt 3.412006 -7.730027
vt 5.11801 -11.43835
vt -12.49167 -0.9940231
vt -12.53047 0.1309722
vt -8.419445 -0.7127743
vt -8.448547 0.1309722
vt -3.412006 -7.730027
vt -5.11801 -11.43835
vt -4.166365 -7.350953
vt -6.123822 -10.93292
vt -8.435297 0.4907903
vt -12.50617 0.7910243
vt -8.344214 1.330111
vt -12.38472 1.910118
vt -6.906487 -4.867806
vt -10.27902 -7.167411
vt -7.357779 -4.154299
vt -10.88074 -6.216069
vt 4.166365 7.350953
vt 3.412006 7.730027
vt 6.123822 10.93292
vt 5.11801 11.43835
vt 7.357779 4.154299
vt 6.906487 4.867806
vt 10.88074 6.216069
vt 10.27902 7.167411
vt 8.122733 2.327298
vt 7.849943 3.12626
vt 12.02887 3.51229
vt 11.66515 4.577573
vt -8.356683 1.249384
vt -12.3839 1.915456
vt -8.190291 2.077073
vt -12.16204 3.019042
vt -10.03937 -2.058888E-28
vt -9.697287 2.59838
vt -9.697287 -2.59838
vt -8.694349 -5.019685
vt -8.694349 5.019685
vt -7.098907 -7.098907
vt -7.098907 7.098907
vt -5.019685 -8.694349
vt -2.59838 -9.697287
vt -3.836149E-12 -10.03937
vt 2.59838 -9.697287
vt 5.019685 -8.694349
vt 7.098907 -7.098907
vt 7.098907 7.098907
vt 5.019685 8.694349
vt 2.59838 9.697287
vt -3.836149E-12 10.03937
vt -2.59838 9.697287
vt -5.019685 8.694349
vt 8.694349 -5.019685
vt 8.694349 5.019685
vt 9.697287 -2.59838
vt 9.697287 2.59838
vt 10.03937 1.776357E-15

usemtl carTire

f 3/3/2 2/2/1 1/1/1
f 2/2/1 3/3/2 4/4/2
f 7/7/3 6/6/4 5/5/3
f 6/6/4 7/7/3 8/8/4
f 11/11/6 10/10/5 9/9/5
f 10/10/5 11/11/6 12/12/6
f 15/15/8 14/14/7 13/13/7
f 14/14/7 15/15/8 16/16/8
f 19/1/9 18/4/10 17/17/9
f 18/4/10 19/1/9 5/3/10
f 13/20/7 21/19/11 20/18/11
f 21/19/11 13/20/7 14/21/7
f 24/24/12 23/23/13 22/22/12
f 23/23/13 24/24/12 25/25/13
f 28/27/15 27/25/14 26/26/14
f 27/25/14 28/27/15 29/24/15
f 3/30/17 31/29/16 30/28/16
f 31/29/16 3/30/17 32/31/17
f 35/34/19 34/33/18 33/32/18
f 34/33/18 35/34/19 1/35/19
f 36/38/20 12/37/6 11/36/6
f 12/37/6 36/38/20 37/39/20
f 34/3/22 39/40/21 38/1/21
f 39/40/21 34/3/22 40/41/22
f 43/43/24 42/3/23 41/42/23
f 42/3/23 43/43/24 44/1/24
f 9/46/5 45/45/25 29/44/25
f 45/45/25 9/46/5 10/47/5
f 48/49/27 47/25/26 46/48/26
f 47/25/26 48/49/27 20/24/27
f 51/52/28 50/51/29 49/50/28
f 50/51/29 51/52/28 52/53/29
f 53/54/30 29/25/15 28/48/15
f 29/25/15 53/54/30 9/24/30
f 36/57/20 54/56/31 37/55/20
f 54/56/31 36/57/20 47/58/31
f 55/17/32 44/3/24 43/59/24
f 44/3/24 55/17/32 30/1/32
f 42/62/33 16/61/8 15/60/8
f 16/61/8 42/62/33 56/63/33
f 46/27/26 36/25/34 57/64/34
f 36/25/34 46/27/26 47/24/26
f 59/67/35 38/66/36 58/65/35
f 38/66/36 59/67/35 60/68/36
f 38/3/21 61/69/37 58/1/37
f 61/69/37 38/3/21 39/70/21
f 63/72/39 13/25/38 62/71/38
f 13/25/38 63/72/39 15/24/39
f 57/54/34 11/25/40 64/73/40
f 11/25/40 57/54/34 36/24/34
f 52/76/29 19/75/41 50/74/29
f 19/75/41 52/76/29 65/77/41
f 66/80/42 24/79/43 27/78/42
f 24/79/43 66/80/42 67/81/43
f 50/1/44 17/82/9 68/43/44
f 17/82/9 50/1/44 19/3/9
f 69/85/45 49/84/28 25/83/45
f 49/84/28 69/85/45 51/86/28
f 32/89/17 1/88/19 35/87/19
f 1/88/19 32/89/17 3/90/17
f 47/93/31 21/92/11 54/91/31
f 21/92/11 47/93/31 20/94/11
f 8/97/4 58/96/35 6/95/4
f 58/96/35 8/97/4 59/98/35
f 49/1/46 68/59/44 70/99/46
f 68/59/44 49/1/46 50/3/44
f 64/100/40 9/25/30 53/64/30
f 9/25/30 64/100/40 11/24/40
f 40/103/47 61/102/47 39/101/47
f 61/102/47 40/103/47 2/104/47
f 61/102/47 2/104/47 71/105/47
f 71/105/47 2/104/47 4/106/47
f 71/105/47 4/106/47 18/107/47
f 18/107/47 4/106/47 55/108/47
f 18/107/47 55/108/47 17/109/47
f 17/109/47 55/108/47 43/110/47
f 17/109/47 43/110/47 68/111/47
f 68/111/47 43/110/47 41/112/47
f 68/111/47 41/112/47 70/113/47
f 70/113/47 41/112/47 63/114/47
f 70/113/47 63/114/47 23/115/47
f 23/115/47 63/114/47 62/116/47
f 23/115/47 62/116/47 22/117/47
f 22/117/47 62/116/47 48/118/47
f 22/117/47 48/118/47 26/119/47
f 26/119/47 48/118/47 46/120/47
f 26/119/47 46/120/47 28/121/47
f 28/121/47 46/120/47 57/122/47
f 28/121/47 57/122/47 53/123/47
f 53/123/47 57/122/47 64/124/47
f 58/3/37 71/2/48 6/1/48
f 71/2/48 58/3/37 61/41/37
f 4/125/2 30/3/32 55/82/32
f 30/3/32 4/125/2 3/1/2
f 44/128/49 56/127/33 42/126/33
f 56/127/33 44/128/49 72/129/49
f 41/130/23 15/25/39 63/23/39
f 15/25/39 41/130/23 42/24/23
f 6/3/48 18/125/10 5/1/10
f 18/125/10 6/3/48 71/131/48
f 30/134/16 72/133/49 44/132/49
f 72/133/49 30/134/16 31/135/16
f 27/24/14 22/71/12 26/49/14
f 22/71/12 27/24/14 24/25/12
f 67/138/43 25/137/45 24/136/43
f 25/137/45 67/138/43 69/139/45
f 25/24/13 70/140/46 23/72/13
f 70/140/46 25/24/13 49/25/46
f 1/3/1 40/69/22 34/1/22
f 40/69/22 1/3/1 2/131/1
f 29/143/25 66/142/42 27/141/42
f 66/142/42 29/143/25 45/144/25
f 65/147/41 5/146/3 19/145/41
f 5/146/3 65/147/41 7/148/3
f 62/22/38 20/25/27 48/26/27
f 20/25/27 62/22/38 13/24/38
f 33/151/18 38/150/36 60/149/36
f 38/150/36 33/151/18 34/152/18

usemtl plastic

f 75/155/51 74/154/50 73/153/50
f 74/154/50 75/155/51 76/156/51
f 79/159/52 78/158/53 77/157/52
f 78/158/53 79/159/52 80/160/53
f 83/163/54 82/162/54 81/161/54
f 82/162/54 83/163/54 84/164/54
f 82/162/54 84/164/54 85/165/54
f 85/165/54 84/164/54 86/166/54
f 85/165/54 86/166/54 87/167/54
f 87/167/54 86/166/54 88/168/54
f 87/167/54 88/168/54 89/169/54
f 89/169/54 88/168/54 90/170/54
f 89/169/54 90/170/54 91/171/54
f 91/171/54 90/170/54 92/172/54
f 91/171/54 92/172/54 93/173/54
f 93/173/54 92/172/54 94/174/54
f 93/173/54 94/174/54 95/175/54
f 95/175/54 94/174/54 96/176/54
f 95/175/54 96/176/54 97/177/54
f 97/177/54 96/176/54 74/178/54
f 97/177/54 74/178/54 98/179/54
f 98/179/54 74/178/54 76/180/54
f 98/179/54 76/180/54 99/181/54
f 99/181/54 76/180/54 100/182/54
f 99/181/54 100/182/54 78/183/54
f 78/183/54 100/182/54 77/184/54
f 84/187/55 102/186/56 101/185/55
f 102/186/56 84/187/55 83/188/56
f 105/191/54 104/190/54 103/189/54
f 104/190/54 105/191/54 106/192/54
f 106/192/54 105/191/54 107/193/54
f 106/192/54 107/193/54 108/194/54
f 106/192/54 108/194/54 109/195/54
f 109/195/54 108/194/54 110/196/54
f 110/196/54 108/194/54 102/197/54
f 102/197/54 108/194/54 111/198/54
f 102/197/54 111/198/54 101/199/54
f 101/199/54 111/198/54 112/200/54
f 112/200/54 111/198/54 113/201/54
f 112/200/54 113/201/54 114/202/54
f 114/202/54 113/201/54 115/203/54
f 115/203/54 113/201/54 116/204/54
f 115/203/54 116/204/54 117/205/54
f 117/205/54 116/204/54 118/206/54
f 117/205/54 118/206/54 119/207/54
f 119/207/54 118/206/54 120/208/54
f 120/208/54 118/206/54 121/209/54
f 120/208/54 121/209/54 73/210/54
f 73/210/54 121/209/54 75/211/54
f 75/211/54 121/209/54 122/212/54
f 75/211/54 122/212/54 123/213/54
f 123/213/54 122/212/54 79/214/54
f 79/214/54 122/212/54 124/215/54
f 124/215/54 122/212/54 125/216/54
f 125/216/54 122/212/54 126/217/54
f 125/216/54 126/217/54 127/218/54
f 127/218/54 126/217/54 128/219/54
f 127/218/54 128/219/54 129/220/54
f 124/215/54 80/221/54 79/214/54
f 124/215/54 130/222/54 80/221/54
f 131/223/54 130/222/54 124/215/54
f 131/223/54 132/224/54 130/222/54
f 131/223/54 133/225/54 132/224/54
f 134/226/54 133/225/54 131/223/54
f 134/226/54 135/227/54 133/225/54
f 136/228/54 135/227/54 134/226/54
f 136/228/54 137/229/54 135/227/54
f 136/228/54 138/230/54 137/229/54
f 139/231/54 138/230/54 136/228/54
f 139/231/54 140/232/54 138/230/54
f 139/231/54 141/233/54 140/232/54
f 142/234/54 141/233/54 139/231/54
f 142/234/54 143/235/54 141/233/54
f 142/234/54 144/236/54 143/235/54
f 109/195/54 144/236/54 142/234/54
f 144/236/54 109/195/54 110/196/54
f 140/239/57 87/238/58 89/237/57
f 87/238/58 140/239/57 141/240/58
f 82/243/60 110/242/59 81/241/59
f 110/242/59 82/243/60 144/244/60
f 94/247/62 120/246/61 96/245/61
f 120/246/61 94/247/62 119/248/62
f 123/251/63 76/250/51 75/249/51
f 76/250/51 123/251/63 100/252/63
f 79/255/52 100/254/63 123/253/63
f 100/254/63 79/255/52 77/256/52
f 80/259/53 99/258/64 78/257/53
f 99/258/64 80/259/53 130/260/64
f 137/263/65 91/262/66 93/261/65
f 91/262/66 137/263/65 138/264/66
f 130/267/64 98/266/67 99/265/64
f 98/266/67 130/267/64 132/268/67
f 96/271/61 73/270/50 74/269/50
f 73/270/50 96/271/61 120/272/61
f 86/275/68 101/274/55 112/273/68
f 101/274/55 86/275/68 84/276/55
f 86/279/68 114/278/69 88/277/69
f 114/278/69 86/279/68 112/280/68
f 138/283/66 89/282/57 91/281/66
f 89/282/57 138/283/66 140/284/57
f 92/287/70 119/286/62 94/285/62
f 119/286/62 92/287/70 117/288/70
f 83/291/56 110/290/59 102/289/56
f 110/290/59 83/291/56 81/292/59
f 90/295/71 117/294/70 92/293/70
f 117/294/70 90/295/71 115/296/71
f 85/299/72 144/298/60 82/297/60
f 144/298/60 85/299/72 143/300/72
f 88/303/69 115/302/71 90/301/71
f 115/302/71 88/303/69 114/304/69
f 135/307/73 93/306/65 95/305/73
f 93/306/65 135/307/73 137/308/65
f 133/311/74 95/310/73 97/309/74
f 95/310/73 133/311/74 135/312/73
f 132/315/67 97/314/74 98/313/67
f 97/314/74 132/315/67 133/316/74
f 87/319/58 143/318/72 85/317/72
f 143/318/72 87/319/58 141/320/58

usemtl paintYellow

f 59/323/54 33/322/54 60/321/54
f 33/322/54 59/323/54 8/324/54
f 33/322/54 8/324/54 35/325/54
f 35/325/54 8/324/54 7/326/54
f 35/325/54 7/326/54 32/327/54
f 32/327/54 7/326/54 103/189/54
f 103/189/54 7/326/54 105/191/54
f 105/191/54 7/326/54 65/328/54
f 105/191/54 65/328/54 107/193/54
f 107/193/54 65/328/54 108/194/54
f 108/194/54 65/328/54 52/329/54
f 108/194/54 52/329/54 111/198/54
f 111/198/54 52/329/54 113/201/54
f 113/201/54 52/329/54 51/330/54
f 113/201/54 51/330/54 116/204/54
f 116/204/54 51/330/54 69/331/54
f 116/204/54 69/331/54 118/206/54
f 118/206/54 69/331/54 121/209/54
f 121/209/54 69/331/54 67/332/54
f 121/209/54 67/332/54 122/212/54
f 122/212/54 67/332/54 126/217/54
f 126/217/54 67/332/54 66/333/54
f 126/217/54 66/333/54 128/219/54
f 128/219/54 66/333/54 129/220/54
f 21/334/54 129/220/54 66/333/54
f 21/334/54 127/218/54 129/220/54
f 21/334/54 125/216/54 127/218/54
f 14/335/54 125/216/54 21/334/54
f 14/335/54 124/215/54 125/216/54
f 14/335/54 131/223/54 124/215/54
f 16/336/54 131/223/54 14/335/54
f 16/336/54 134/226/54 131/223/54
f 56/337/54 134/226/54 16/336/54
f 56/337/54 136/228/54 134/226/54
f 56/337/54 139/231/54 136/228/54
f 72/338/54 139/231/54 56/337/54
f 72/338/54 142/234/54 139/231/54
f 72/338/54 109/195/54 142/234/54
f 31/339/54 109/195/54 72/338/54
f 31/339/54 106/192/54 109/195/54
f 31/339/54 104/190/54 106/192/54
f 32/327/54 104/190/54 31/339/54
f 104/190/54 32/327/54 103/189/54
f 21/334/54 66/333/54 45/340/54
f 21/334/54 45/340/54 54/341/54
f 54/341/54 45/340/54 10/342/54
f 54/341/54 10/342/54 37/343/54
f 37/343/54 10/342/54 12/344/54

